<svg width="40" height="41" viewBox="0 0 40 41" fill="none" xmlns="http://www.w3.org/2000/svg">
    <rect x="0.5" y="1.34766" width="39" height="39" rx="19.5" stroke="#C6C6C6"/>
    <path d="M24 19.3477H24.16C25.22 19.3477 26 20.1277 26 21.1877V26.0077C26 27.0677 25.22 27.8477 24.16 27.8477H15.84C14.78 27.8477 14 27.0677 14 26.0077V21.1877C14 20.1277 14.78 19.3477 15.84 19.3477H16V17.8977C16 15.5577 17.66 13.8477 20 13.8477C22.35 13.8477 24 15.5577 24 17.8977V19.3477ZM17.5 17.8977V19.3477H22.5V17.8977C22.5 16.3777 21.52 15.3477 20 15.3477C18.49 15.3477 17.5 16.3777 17.5 17.8977ZM24.5 26.0377V21.1577C24.5 20.9877 24.36 20.8477 24.19 20.8477H15.81C15.64 20.8477 15.5 20.9877 15.5 21.1577V26.0377C15.5 26.2077 15.64 26.3477 15.81 26.3477H24.19C24.36 26.3477 24.5 26.2077 24.5 26.0377Z" fill="#1D1C1D"/>
</svg>
